<svg xmlns="http://www.w3.org/2000/svg" width="1080" height="1080" viewBox="0 0 1080 1080" version="1.1"><path d="M 696 303.796 C 689.675 307.529, 676.400 315.925, 666.500 322.452 C 621.544 352.095, 607.465 361.524, 593 371.674 C 566.377 390.356, 557.276 396.200, 555.376 395.834 C 552.961 395.369, 545.135 382.552, 534.048 360.904 C 529.091 351.227, 523.837 342.110, 522.373 340.645 C 519.098 337.371, 514.428 336.012, 510.748 337.262 C 506.017 338.870, 505.935 339.024, 486.801 382.500 C 479.052 400.108, 478.533 401, 476.030 401 C 475.081 401, 463.548 390.595, 450.402 377.877 C 420.025 348.490, 415.006 344.273, 409.403 343.433 C 406.222 342.956, 404.114 343.272, 401.322 344.644 C 396.088 347.215, 395.137 351.206, 393.963 375.500 C 393.432 386.500, 392.309 406.525, 391.468 420 C 390.627 433.475, 389.659 449.571, 389.316 455.770 C 388.973 461.968, 388.199 467.709, 387.596 468.528 C 386.652 469.812, 384.909 469.864, 375 468.909 C 368.493 468.281, 332.544 467.583, 292.208 467.301 L 220.916 466.802 219.514 464.651 C 218.201 462.636, 215.109 446.200, 211.495 422.020 C 210.634 416.256, 209.260 410.519, 208.441 409.270 L 206.954 407 166.431 407 L 125.909 407 123.529 409.380 C 120.691 412.218, 118.460 419.256, 117.060 429.789 C 115.133 444.277, 113.913 488.271, 114.557 520 C 115.283 555.746, 115.498 553.956, 104.985 599.500 C 96.854 634.728, 85.428 693.841, 78.601 736 C 65.554 816.572, 62.196 842.458, 63.589 851.745 C 64.528 858.008, 67.786 861.398, 74.721 863.329 C 77.900 864.214, 91.939 867.223, 105.920 870.016 C 119.902 872.808, 131.669 875.296, 132.071 875.544 C 132.473 875.792, 138.581 876.671, 145.645 877.498 C 174.981 880.929, 187.054 878.561, 196.826 867.460 C 206.235 856.771, 207.582 836.853, 199.950 821.276 C 196.561 814.360, 192.670 810.798, 181.193 804.104 C 177.174 801.760, 173.437 798.858, 172.889 797.655 C 171.713 795.074, 174.990 778.720, 180.635 759 C 182.603 752.125, 186.148 738.850, 188.513 729.500 C 193.756 708.776, 197.600 696.543, 199.452 694.691 C 201.401 692.742, 225.969 693.536, 227.610 695.602 C 228.350 696.534, 228.946 709.573, 229.398 734.750 C 231.204 835.220, 232.303 861.983, 235.040 872.149 C 236.702 878.321, 241.373 882.530, 248.034 883.859 C 252.930 884.836, 284.401 887.360, 308.572 888.715 C 320 889.355, 336.263 887.642, 345.995 884.773 C 355.340 882.018, 360.660 877.173, 363.968 868.407 C 365.932 863.200, 366.142 861.136, 365.744 851 C 364.858 828.473, 356.973 817.972, 335.735 811.036 C 324.975 807.522, 325.644 809.967, 326.442 777.053 C 327.745 723.371, 328.500 704.500, 329.402 703.100 C 331.067 700.514, 378.186 703.257, 381.669 706.142 C 382.312 706.675, 383.328 710.123, 383.927 713.805 C 387.785 737.521, 389.157 746.624, 391.489 764 C 392.928 774.725, 394.983 789.125, 396.055 796 C 397.126 802.875, 399.581 820.496, 401.508 835.158 C 408.439 887.865, 408.812 888.873, 422.500 891.802 C 430.578 893.530, 460.549 895.327, 473 894.829 C 482.694 894.442, 485.282 893.977, 489.480 891.873 C 497.244 887.981, 498.532 884.947, 498.347 871 C 498.198 859.723, 494.838 825.217, 490.997 795.500 C 487.571 768.989, 481.886 708.535, 482.198 701.915 L 482.500 695.500 488.815 695.600 C 496.352 695.720, 497.503 696.630, 499.510 704.055 C 501.517 711.481, 516.562 774.815, 525.033 811.500 C 534.037 850.495, 540.251 874.524, 542.608 879.465 C 545.082 884.649, 549.758 887.681, 556.800 888.665 C 559.935 889.103, 578.025 889.470, 597 889.481 C 638.263 889.504, 648.993 888.146, 662.665 881.171 C 687.364 868.570, 684.348 822.405, 658.055 810.605 C 654.740 809.117, 645.834 806.514, 638.264 804.820 C 630.617 803.108, 623.770 801.019, 622.858 800.120 C 621.955 799.229, 620.047 793.550, 618.618 787.500 C 617.189 781.450, 613.518 765.925, 610.460 753 C 607.402 740.075, 604.050 725.900, 603.010 721.500 C 595.884 691.331, 585.047 643.800, 584.503 640.325 C 583.948 636.781, 584.153 635.988, 585.859 635.075 C 589.634 633.055, 604.228 633.644, 648 637.583 C 657.625 638.449, 669.775 639.541, 675 640.008 C 680.225 640.475, 695.975 642.054, 710 643.517 C 740.073 646.654, 746.288 646.529, 749.562 642.723 C 753.967 637.601, 776.015 575.567, 776.331 567.403 C 776.624 559.821, 772.671 556.190, 757 549.649 C 751.225 547.238, 737.725 541.570, 727 537.053 C 716.275 532.536, 702.775 526.905, 697 524.540 C 681.990 518.394, 657.814 507.849, 648.698 503.474 C 638.697 498.673, 638.781 497.718, 650 488.717 C 671.223 471.690, 699.045 450.164, 716 437.653 C 726.175 430.145, 738.308 421.189, 742.962 417.751 C 756.376 407.841, 762.960 402.006, 763.598 399.464 C 764.431 396.145, 763.019 392.504, 754.494 376 C 750.374 368.025, 742.908 351.375, 737.903 339 C 727.157 312.432, 722.948 304.039, 718.336 299.990 C 712.905 295.222, 709.559 295.792, 696 303.796 M 701.276 335.958 C 700.070 337.081, 698.596 338, 698 338 C 697.404 338, 695.950 338.900, 694.770 340 C 693.589 341.100, 692.033 342, 691.311 342 C 690.590 342, 690 342.395, 690 342.879 C 690 343.362, 688.650 344.317, 687 345 C 685.350 345.683, 684 346.638, 684 347.121 C 684 347.605, 683.410 348, 682.689 348 C 681.967 348, 680.476 348.839, 679.376 349.865 C 678.275 350.890, 676.306 352.301, 675 353 C 673.694 353.699, 672.148 354.654, 671.563 355.123 C 670.978 355.591, 665.550 359.235, 659.500 363.219 C 653.450 367.204, 647.628 371.259, 646.561 372.232 C 645.495 373.204, 644.070 374, 643.395 374 C 642.719 374, 642.017 374.372, 641.833 374.826 C 641.366 375.985, 626.319 386, 625.045 386 C 624.470 386, 624 386.374, 624 386.831 C 624 387.288, 622.763 388.300, 621.250 389.079 C 619.737 389.859, 618.275 390.760, 618 391.083 C 617.725 391.405, 613.225 394.528, 608 398.022 C 602.775 401.516, 597.935 404.936, 597.244 405.622 C 596.553 406.308, 595.091 407.154, 593.994 407.502 C 592.897 407.850, 592 408.500, 592 408.946 C 592 409.392, 590.650 410.317, 589 411 C 587.350 411.683, 586 412.541, 586 412.906 C 586 413.270, 584.666 414.357, 583.036 415.319 C 581.406 416.282, 579.482 417.617, 578.759 418.285 C 577.280 419.653, 574.813 421.401, 563.879 428.825 C 557.375 433.241, 555.569 434, 551.563 434 C 548.981 434, 545.886 433.504, 544.684 432.899 C 541.415 431.250, 536.458 425.346, 531.756 417.500 C 529.449 413.650, 527.289 410.275, 526.956 410 C 526.623 409.725, 525.259 407.475, 523.925 405 C 522.591 402.525, 521.271 400.275, 520.990 400 C 520.710 399.725, 519.595 397.813, 518.513 395.750 C 517.431 393.688, 516.083 392, 515.518 392 C 514.952 392, 513.437 394.813, 512.149 398.250 C 510.862 401.688, 509.020 406.300, 508.055 408.500 C 507.090 410.700, 505.685 414.637, 504.932 417.250 C 504.179 419.863, 503.212 422, 502.782 422 C 502.352 422, 502 422.590, 502 423.312 C 502 425.791, 497.720 433.480, 494.611 436.585 C 489.652 441.540, 485.410 442.629, 479.160 440.553 C 476.307 439.606, 473.417 438.291, 472.737 437.632 C 472.056 436.973, 469.925 435.329, 468 433.977 C 466.075 432.626, 461.782 428.816, 458.459 425.510 C 455.137 422.205, 449.551 417.025, 446.047 414 C 442.544 410.975, 437.797 406.700, 435.499 404.500 C 433.201 402.300, 429.233 398.503, 426.682 396.062 C 424.130 393.622, 421.735 391.931, 421.361 392.306 C 420.710 392.957, 420.021 406.190, 418.045 456 C 416.934 484.006, 415.750 489.521, 409.593 495.397 C 404.580 500.181, 408.654 500, 306.003 500 C 209.333 500, 208.962 499.992, 204.483 497.887 C 197.351 494.535, 193.643 489.279, 191.863 480 C 191.388 477.525, 190.526 473.025, 189.947 470 C 188.456 462.209, 187.206 454.545, 186.176 446.886 C 185.687 443.249, 184.970 439.761, 184.584 439.136 C 183.790 437.851, 149.287 437.507, 147.396 438.765 C 146.789 439.169, 145.722 443.775, 145.025 449 C 143.824 457.996, 143.847 467.481, 145.252 545 C 145.327 549.125, 144.854 554.975, 144.200 558 C 142.115 567.648, 140.827 573.405, 139.947 577 C 137.629 586.480, 136.315 592.328, 133.096 607.500 C 132.046 612.450, 130.231 620.775, 129.062 626 C 127.894 631.225, 126.503 637.750, 125.972 640.500 C 125.440 643.250, 124.547 647.525, 123.986 650 C 123.425 652.475, 122.550 656.750, 122.041 659.500 C 121.532 662.250, 120.650 666.525, 120.082 669 C 119.514 671.475, 118.569 676.425, 117.984 680 C 117.398 683.575, 116.489 688.750, 115.964 691.500 C 115.439 694.250, 114.518 699.200, 113.919 702.500 C 113.319 705.800, 112.456 710.525, 112 713 C 110.417 721.595, 108.810 730.529, 107.907 735.750 C 107.408 738.637, 106.566 743.362, 106.036 746.250 C 104.981 751.989, 103.644 759.925, 102.034 770 C 101.462 773.575, 100.525 779.200, 99.952 782.500 C 99.378 785.800, 98.503 791.425, 98.007 795 C 97.511 798.575, 96.420 806, 95.584 811.500 C 94.185 820.700, 93.450 836, 94.406 836 C 94.756 836, 112.300 840.276, 123 842.970 C 134.813 845.943, 160.719 850, 167.896 850 C 173.869 850, 174.956 848.831, 175.702 841.598 C 176.245 836.337, 176.114 835.909, 173.090 833.084 C 171.128 831.251, 167.143 829.271, 162.703 827.923 C 136.073 819.836, 136.773 820.651, 140.616 802.179 C 142.067 795.206, 143.622 787.700, 144.072 785.500 C 144.522 783.300, 145.398 779.475, 146.018 777 C 146.637 774.525, 147.365 770.925, 147.634 769 C 147.904 767.075, 148.512 764.600, 148.987 763.500 C 149.461 762.400, 150.132 760.150, 150.478 758.500 C 152.376 749.452, 152.947 746.929, 154.442 741 C 156.459 732.997, 157.991 727.285, 159 724 C 159.422 722.625, 160.306 719.475, 160.963 717 C 168.717 687.793, 174.803 670.765, 179.467 665.221 C 183.518 660.407, 186.566 659.678, 199.754 660.371 C 213.643 661.100, 233.070 662.713, 238 663.545 C 248.292 665.283, 256 671.551, 256 678.183 C 256 679.678, 256.421 683.061, 256.936 685.701 C 257.451 688.340, 258.167 705.350, 258.526 723.500 C 260.248 810.424, 261.045 841.017, 261.742 846.933 C 262.450 852.944, 262.696 853.426, 265.500 854.296 C 270.097 855.722, 286.354 856.954, 309.212 857.608 C 334.655 858.336, 336.124 857.936, 337.135 850 C 337.408 847.858, 335.856 842.701, 334.581 841.510 C 332.883 839.923, 326.667 838, 323.238 838 C 321.522 838, 319.869 837.598, 319.565 837.106 C 319.261 836.614, 317.322 835.956, 315.256 835.644 C 306.406 834.307, 304 833.734, 304 832.960 C 304 832.509, 302.988 831.995, 301.750 831.820 C 300.376 831.624, 298.788 830.138, 297.669 828 C 295.967 824.745, 295.882 822.291, 296.459 793 C 297.280 751.279, 298.857 703.031, 299.826 690 C 300.802 676.861, 302.567 672.746, 307.911 671.145 C 315.106 668.989, 349.024 670.210, 388 674.027 C 407.371 675.924, 407.640 676.242, 412.567 703 C 412.921 704.925, 413.597 709.650, 414.069 713.500 C 414.541 717.350, 415.394 723.538, 415.964 727.250 C 418.064 740.928, 420.040 754.737, 422.010 769.500 C 422.524 773.350, 423.393 779.650, 423.941 783.500 C 424.490 787.350, 425.390 793.875, 425.942 798 C 426.494 802.125, 427.424 808.650, 428.009 812.500 C 428.594 816.350, 429.484 822.650, 429.988 826.500 C 430.492 830.350, 431.365 836.650, 431.928 840.500 C 432.491 844.350, 433.214 849.750, 433.534 852.500 C 434.647 862.037, 434.390 861.685, 440.738 862.395 C 443.907 862.749, 451.401 863.316, 457.390 863.654 L 468.280 864.268 467.649 854.384 C 467.047 844.953, 466.316 837.195, 464.030 816 C 461.379 791.422, 459.018 767.526, 455.926 734 C 455.393 728.225, 454.534 719, 454.017 713.500 C 451.996 691.997, 451.757 680.691, 453.236 676.500 C 456.611 666.938, 468.853 663.415, 496.033 664.182 C 516.296 664.753, 518.130 665.534, 521.108 674.861 C 522.275 678.513, 523.627 683.188, 524.114 685.250 C 524.601 687.313, 525.450 690.800, 526 693 C 528.457 702.828, 529.165 705.751, 529.997 709.500 C 532.924 722.691, 536.090 735.753, 537.998 742.500 C 538.620 744.700, 539.594 748.525, 540.163 751 C 541.410 756.428, 542.657 761.628, 544 767 C 545.763 774.052, 546.989 779.386, 547.908 784 C 548.810 788.529, 557.346 822.051, 561.150 836 C 562.274 840.125, 563.594 845.450, 564.083 847.833 C 564.571 850.217, 565.544 853.367, 566.245 854.833 L 567.519 857.500 591.715 858.918 C 611.509 860.077, 618.055 860.109, 627.705 859.092 C 634.192 858.408, 640.430 857.670, 641.566 857.452 C 646.701 856.464, 651.146 848.810, 649.140 844.408 C 648.513 843.032, 648 841.192, 648 840.320 C 648 838.364, 644.349 835.085, 641.566 834.543 C 640.430 834.321, 635.225 833.633, 630 833.013 C 599.454 829.388, 599.413 829.372, 596.584 819.910 C 595.530 816.384, 594.317 811.700, 593.889 809.500 C 593.460 807.300, 592.635 803.587, 592.055 801.250 C 591.475 798.913, 590.525 795.087, 589.945 792.750 C 589.365 790.413, 588.491 786.700, 588.003 784.500 C 586.143 776.115, 583.922 766.687, 581.937 758.750 C 581.353 756.413, 580.481 752.475, 580 750 C 579.519 747.525, 578.627 743.475, 578.017 741 C 575.916 732.469, 574.985 728.486, 574.045 724 C 573.526 721.525, 572.626 717.475, 572.045 715 C 571.464 712.525, 570.564 708.475, 570.045 706 C 569.526 703.525, 568.651 699.700, 568.100 697.500 C 567.549 695.300, 566.582 691.250, 565.951 688.500 C 565.320 685.750, 564.420 681.925, 563.951 680 C 563.060 676.346, 561.357 668.977, 560.021 663 C 559.591 661.075, 558.231 655.225, 557 650 C 555.769 644.775, 554.390 638.925, 553.936 637 C 551.777 627.834, 550.002 618.233, 550.001 615.710 C 549.999 611.435, 553.539 605.448, 557.526 602.984 C 562.994 599.604, 572.657 599.787, 615 604.074 C 635.107 606.109, 644.582 606.979, 657.500 607.977 C 664.650 608.529, 675.225 609.445, 681 610.013 C 705.517 612.425, 713.026 613.086, 722.250 613.643 L 732 614.233 732 611.603 C 732 610.156, 732.404 608.191, 732.897 607.236 C 733.683 605.713, 737.248 594.395, 741.095 581.209 C 742.567 576.165, 741.860 575.144, 735.500 573.133 C 733.300 572.437, 730.487 571.448, 729.250 570.934 C 728.013 570.420, 725.987 569.595, 724.750 569.100 C 723.513 568.604, 720.367 567.254, 717.761 566.100 C 715.154 564.945, 712.342 564, 711.511 564 C 710.680 564, 710 563.550, 710 563 C 710 562.450, 709.387 562, 708.638 562 C 707.890 562, 703.277 560.161, 698.388 557.914 C 682.538 550.626, 681.043 550, 679.511 550 C 678.680 550, 678 549.550, 678 549 C 678 548.450, 677.333 548, 676.519 548 C 675.704 548, 671.316 546.256, 666.769 544.124 C 662.221 541.993, 656.700 539.455, 654.500 538.484 C 652.300 537.514, 647.350 535.264, 643.500 533.485 C 639.650 531.706, 634.700 529.466, 632.500 528.507 C 602.262 515.322, 600.096 514.173, 597.599 509.986 C 595.787 506.948, 595.776 506.553, 597.348 501.565 C 599.851 493.624, 609.901 481.646, 622.679 471.375 C 625.330 469.244, 627.725 467.253, 628 466.952 C 628.275 466.650, 630.075 465.322, 632 464 C 633.925 462.678, 635.725 461.342, 636 461.032 C 636.690 460.253, 641.963 456.010, 645.981 453 C 649.082 450.676, 659.575 442.470, 663 439.689 C 663.825 439.020, 666.075 437.375, 668 436.034 C 669.925 434.693, 671.725 433.328, 672 433 C 672.275 432.672, 674.075 431.322, 676 430 C 677.925 428.678, 679.725 427.328, 680 427 C 680.275 426.672, 682.075 425.315, 684 423.985 C 685.925 422.654, 688.101 420.982, 688.837 420.268 C 689.572 419.554, 691.822 417.742, 693.837 416.241 C 695.851 414.740, 697.725 413.258, 698 412.948 C 698.275 412.639, 702.325 409.507, 707 405.990 C 711.675 402.472, 715.650 399.235, 715.833 398.797 C 716.017 398.359, 716.692 397.999, 717.333 397.999 C 717.975 397.998, 719.781 396.896, 721.346 395.550 C 722.911 394.204, 724.703 392.932, 725.328 392.724 C 726.615 392.295, 726.484 387.510, 725.102 384.500 C 724.597 383.400, 722.980 379.350, 721.508 375.500 C 718.766 368.329, 717.799 366.008, 714.116 357.761 C 712.952 355.154, 712 352.675, 712 352.252 C 712 351.829, 710.080 347.530, 707.734 342.699 L 703.468 333.915 701.276 335.958 M 892.500 359.952 C 890.300 361.070, 871.625 374.620, 851 390.063 C 830.375 405.507, 810.125 420.537, 806 423.465 C 794.895 431.346, 794.452 431.971, 796.019 437.568 C 796.855 440.555, 799.051 444.082, 802.255 447.589 C 809.462 455.474, 809.854 455.380, 829.832 441.017 C 839 434.426, 847.850 427.971, 849.500 426.671 C 851.150 425.371, 865.008 414.945, 880.296 403.503 C 895.584 392.061, 908.971 381.581, 910.046 380.215 C 912.766 376.756, 912.630 370.222, 909.750 365.990 C 904.854 358.797, 898.886 356.708, 892.500 359.952 M 823.230 491.020 C 815.369 492.161, 811.189 497.401, 811.056 506.282 C 810.967 512.293, 813.379 516.823, 817.714 518.786 C 821.050 520.296, 826.371 520.539, 862.500 520.825 C 903.926 521.154, 923.146 520.209, 929.582 517.527 C 931.277 516.820, 933.683 514.950, 934.928 513.371 C 936.886 510.888, 937.140 509.587, 936.812 503.736 C 936.473 497.688, 936.090 496.629, 933.197 493.736 L 929.960 490.500 878.730 490.450 C 850.554 490.423, 825.578 490.679, 823.230 491.020" stroke="none" fill="#151711" fill-rule="evenodd"/><path d="M 701.276 335.958 C 700.070 337.081, 698.596 338, 698 338 C 697.404 338, 695.950 338.900, 694.770 340 C 693.589 341.100, 692.033 342, 691.311 342 C 690.590 342, 690 342.395, 690 342.879 C 690 343.362, 688.650 344.317, 687 345 C 685.350 345.683, 684 346.638, 684 347.121 C 684 347.605, 683.410 348, 682.689 348 C 681.967 348, 680.476 348.839, 679.376 349.865 C 678.275 350.890, 676.306 352.301, 675 353 C 673.694 353.699, 672.148 354.654, 671.563 355.123 C 670.978 355.591, 665.550 359.235, 659.500 363.219 C 653.450 367.204, 647.628 371.259, 646.561 372.232 C 645.495 373.204, 644.070 374, 643.395 374 C 642.719 374, 642.017 374.372, 641.833 374.826 C 641.366 375.985, 626.319 386, 625.045 386 C 624.470 386, 624 386.374, 624 386.831 C 624 387.288, 622.763 388.300, 621.250 389.079 C 619.737 389.859, 618.275 390.760, 618 391.083 C 617.725 391.405, 613.225 394.528, 608 398.022 C 602.775 401.516, 597.935 404.936, 597.244 405.622 C 596.553 406.308, 595.091 407.154, 593.994 407.502 C 592.897 407.850, 592 408.500, 592 408.946 C 592 409.392, 590.650 410.317, 589 411 C 587.350 411.683, 586 412.541, 586 412.906 C 586 413.270, 584.666 414.357, 583.036 415.319 C 581.406 416.282, 579.482 417.617, 578.759 418.285 C 577.280 419.653, 574.813 421.401, 563.879 428.825 C 557.375 433.241, 555.569 434, 551.563 434 C 548.981 434, 545.886 433.504, 544.684 432.899 C 541.415 431.250, 536.458 425.346, 531.756 417.500 C 529.449 413.650, 527.289 410.275, 526.956 410 C 526.623 409.725, 525.259 407.475, 523.925 405 C 522.591 402.525, 521.271 400.275, 520.990 400 C 520.710 399.725, 519.595 397.813, 518.513 395.750 C 517.431 393.688, 516.083 392, 515.518 392 C 514.952 392, 513.437 394.813, 512.149 398.250 C 510.862 401.688, 509.020 406.300, 508.055 408.500 C 507.090 410.700, 505.685 414.637, 504.932 417.250 C 504.179 419.863, 503.212 422, 502.782 422 C 502.352 422, 502 422.590, 502 423.312 C 502 425.791, 497.720 433.480, 494.611 436.585 C 489.652 441.540, 485.410 442.629, 479.160 440.553 C 476.307 439.606, 473.417 438.291, 472.737 437.632 C 472.056 436.973, 469.925 435.329, 468 433.977 C 466.075 432.626, 461.782 428.816, 458.459 425.510 C 455.137 422.205, 449.551 417.025, 446.047 414 C 442.544 410.975, 437.797 406.700, 435.499 404.500 C 433.201 402.300, 429.233 398.503, 426.682 396.062 C 424.130 393.622, 421.735 391.931, 421.361 392.306 C 420.710 392.957, 420.021 406.190, 418.045 456 C 416.934 484.006, 415.750 489.521, 409.593 495.397 C 404.580 500.181, 408.654 500, 306.003 500 C 209.333 500, 208.962 499.992, 204.483 497.887 C 197.351 494.535, 193.643 489.279, 191.863 480 C 191.388 477.525, 190.526 473.025, 189.947 470 C 188.456 462.209, 187.206 454.545, 186.176 446.886 C 185.687 443.249, 184.970 439.761, 184.584 439.136 C 183.790 437.851, 149.287 437.507, 147.396 438.765 C 146.789 439.169, 145.722 443.775, 145.025 449 C 143.824 457.996, 143.847 467.481, 145.252 545 C 145.327 549.125, 144.854 554.975, 144.200 558 C 142.115 567.648, 140.827 573.405, 139.947 577 C 137.629 586.480, 136.315 592.328, 133.096 607.500 C 132.046 612.450, 130.231 620.775, 129.062 626 C 127.894 631.225, 126.503 637.750, 125.972 640.500 C 125.440 643.250, 124.547 647.525, 123.986 650 C 123.425 652.475, 122.550 656.750, 122.041 659.500 C 121.532 662.250, 120.650 666.525, 120.082 669 C 119.514 671.475, 118.569 676.425, 117.984 680 C 117.398 683.575, 116.489 688.750, 115.964 691.500 C 115.439 694.250, 114.518 699.200, 113.919 702.500 C 113.319 705.800, 112.456 710.525, 112 713 C 110.417 721.595, 108.810 730.529, 107.907 735.750 C 107.408 738.637, 106.566 743.362, 106.036 746.250 C 104.981 751.989, 103.644 759.925, 102.034 770 C 101.462 773.575, 100.525 779.200, 99.952 782.500 C 99.378 785.800, 98.503 791.425, 98.007 795 C 97.511 798.575, 96.420 806, 95.584 811.500 C 94.185 820.700, 93.450 836, 94.406 836 C 94.756 836, 112.300 840.276, 123 842.970 C 134.813 845.943, 160.719 850, 167.896 850 C 173.869 850, 174.956 848.831, 175.702 841.598 C 176.245 836.337, 176.114 835.909, 173.090 833.084 C 171.128 831.251, 167.143 829.271, 162.703 827.923 C 136.073 819.836, 136.773 820.651, 140.616 802.179 C 142.067 795.206, 143.622 787.700, 144.072 785.500 C 144.522 783.300, 145.398 779.475, 146.018 777 C 146.637 774.525, 147.365 770.925, 147.634 769 C 147.904 767.075, 148.512 764.600, 148.987 763.500 C 149.461 762.400, 150.132 760.150, 150.478 758.500 C 152.376 749.452, 152.947 746.929, 154.442 741 C 156.459 732.997, 157.991 727.285, 159 724 C 159.422 722.625, 160.306 719.475, 160.963 717 C 168.717 687.793, 174.803 670.765, 179.467 665.221 C 183.518 660.407, 186.566 659.678, 199.754 660.371 C 213.643 661.100, 233.070 662.713, 238 663.545 C 248.292 665.283, 256 671.551, 256 678.183 C 256 679.678, 256.421 683.061, 256.936 685.701 C 257.451 688.340, 258.167 705.350, 258.526 723.500 C 260.248 810.424, 261.045 841.017, 261.742 846.933 C 262.450 852.944, 262.696 853.426, 265.500 854.296 C 270.097 855.722, 286.354 856.954, 309.212 857.608 C 334.655 858.336, 336.124 857.936, 337.135 850 C 337.408 847.858, 335.856 842.701, 334.581 841.510 C 332.883 839.923, 326.667 838, 323.238 838 C 321.522 838, 319.869 837.598, 319.565 837.106 C 319.261 836.614, 317.322 835.956, 315.256 835.644 C 306.406 834.307, 304 833.734, 304 832.960 C 304 832.509, 302.988 831.995, 301.750 831.820 C 300.376 831.624, 298.788 830.138, 297.669 828 C 295.967 824.745, 295.882 822.291, 296.459 793 C 297.280 751.279, 298.857 703.031, 299.826 690 C 300.802 676.861, 302.567 672.746, 307.911 671.145 C 315.106 668.989, 349.024 670.210, 388 674.027 C 407.371 675.924, 407.640 676.242, 412.567 703 C 412.921 704.925, 413.597 709.650, 414.069 713.500 C 414.541 717.350, 415.394 723.538, 415.964 727.250 C 418.064 740.928, 420.040 754.737, 422.010 769.500 C 422.524 773.350, 423.393 779.650, 423.941 783.500 C 424.490 787.350, 425.390 793.875, 425.942 798 C 426.494 802.125, 427.424 808.650, 428.009 812.500 C 428.594 816.350, 429.484 822.650, 429.988 826.500 C 430.492 830.350, 431.365 836.650, 431.928 840.500 C 432.491 844.350, 433.214 849.750, 433.534 852.500 C 434.647 862.037, 434.390 861.685, 440.738 862.395 C 443.907 862.749, 451.401 863.316, 457.390 863.654 L 468.280 864.268 467.649 854.384 C 467.047 844.953, 466.316 837.195, 464.030 816 C 461.379 791.422, 459.018 767.526, 455.926 734 C 455.393 728.225, 454.534 719, 454.017 713.500 C 451.996 691.997, 451.757 680.691, 453.236 676.500 C 456.611 666.938, 468.853 663.415, 496.033 664.182 C 516.296 664.753, 518.130 665.534, 521.108 674.861 C 522.275 678.513, 523.627 683.188, 524.114 685.250 C 524.601 687.313, 525.450 690.800, 526 693 C 528.457 702.828, 529.165 705.751, 529.997 709.500 C 532.924 722.691, 536.090 735.753, 537.998 742.500 C 538.620 744.700, 539.594 748.525, 540.163 751 C 541.410 756.428, 542.657 761.628, 544 767 C 545.763 774.052, 546.989 779.386, 547.908 784 C 548.810 788.529, 557.346 822.051, 561.150 836 C 562.274 840.125, 563.594 845.450, 564.083 847.833 C 564.571 850.217, 565.544 853.367, 566.245 854.833 L 567.519 857.500 591.715 858.918 C 611.509 860.077, 618.055 860.109, 627.705 859.092 C 634.192 858.408, 640.430 857.670, 641.566 857.452 C 646.701 856.464, 651.146 848.810, 649.140 844.408 C 648.513 843.032, 648 841.192, 648 840.320 C 648 838.364, 644.349 835.085, 641.566 834.543 C 640.430 834.321, 635.225 833.633, 630 833.013 C 599.454 829.388, 599.413 829.372, 596.584 819.910 C 595.530 816.384, 594.317 811.700, 593.889 809.500 C 593.460 807.300, 592.635 803.587, 592.055 801.250 C 591.475 798.913, 590.525 795.087, 589.945 792.750 C 589.365 790.413, 588.491 786.700, 588.003 784.500 C 586.143 776.115, 583.922 766.687, 581.937 758.750 C 581.353 756.413, 580.481 752.475, 580 750 C 579.519 747.525, 578.627 743.475, 578.017 741 C 575.916 732.469, 574.985 728.486, 574.045 724 C 573.526 721.525, 572.626 717.475, 572.045 715 C 571.464 712.525, 570.564 708.475, 570.045 706 C 569.526 703.525, 568.651 699.700, 568.100 697.500 C 567.549 695.300, 566.582 691.250, 565.951 688.500 C 565.320 685.750, 564.420 681.925, 563.951 680 C 563.060 676.346, 561.357 668.977, 560.021 663 C 559.591 661.075, 558.231 655.225, 557 650 C 555.769 644.775, 554.390 638.925, 553.936 637 C 551.777 627.834, 550.002 618.233, 550.001 615.710 C 549.999 611.435, 553.539 605.448, 557.526 602.984 C 562.994 599.604, 572.657 599.787, 615 604.074 C 635.107 606.109, 644.582 606.979, 657.500 607.977 C 664.650 608.529, 675.225 609.445, 681 610.013 C 705.517 612.425, 713.026 613.086, 722.250 613.643 L 732 614.233 732 611.603 C 732 610.156, 732.404 608.191, 732.897 607.236 C 733.683 605.713, 737.248 594.395, 741.095 581.209 C 742.567 576.165, 741.860 575.144, 735.500 573.133 C 733.300 572.437, 730.487 571.448, 729.250 570.934 C 728.013 570.420, 725.987 569.595, 724.750 569.100 C 723.513 568.604, 720.367 567.254, 717.761 566.100 C 715.154 564.945, 712.342 564, 711.511 564 C 710.680 564, 710 563.550, 710 563 C 710 562.450, 709.387 562, 708.638 562 C 707.890 562, 703.277 560.161, 698.388 557.914 C 682.538 550.626, 681.043 550, 679.511 550 C 678.680 550, 678 549.550, 678 549 C 678 548.450, 677.333 548, 676.519 548 C 675.704 548, 671.316 546.256, 666.769 544.124 C 662.221 541.993, 656.700 539.455, 654.500 538.484 C 652.300 537.514, 647.350 535.264, 643.500 533.485 C 639.650 531.706, 634.700 529.466, 632.500 528.507 C 602.262 515.322, 600.096 514.173, 597.599 509.986 C 595.787 506.948, 595.776 506.553, 597.348 501.565 C 599.851 493.624, 609.901 481.646, 622.679 471.375 C 625.330 469.244, 627.725 467.253, 628 466.952 C 628.275 466.650, 630.075 465.322, 632 464 C 633.925 462.678, 635.725 461.342, 636 461.032 C 636.690 460.253, 641.963 456.010, 645.981 453 C 649.082 450.676, 659.575 442.470, 663 439.689 C 663.825 439.020, 666.075 437.375, 668 436.034 C 669.925 434.693, 671.725 433.328, 672 433 C 672.275 432.672, 674.075 431.322, 676 430 C 677.925 428.678, 679.725 427.328, 680 427 C 680.275 426.672, 682.075 425.315, 684 423.985 C 685.925 422.654, 688.101 420.982, 688.837 420.268 C 689.572 419.554, 691.822 417.742, 693.837 416.241 C 695.851 414.740, 697.725 413.258, 698 412.948 C 698.275 412.639, 702.325 409.507, 707 405.990 C 711.675 402.472, 715.650 399.235, 715.833 398.797 C 716.017 398.359, 716.692 397.999, 717.333 397.999 C 717.975 397.998, 719.781 396.896, 721.346 395.550 C 722.911 394.204, 724.703 392.932, 725.328 392.724 C 726.615 392.295, 726.484 387.510, 725.102 384.500 C 724.597 383.400, 722.980 379.350, 721.508 375.500 C 718.766 368.329, 717.799 366.008, 714.116 357.761 C 712.952 355.154, 712 352.675, 712 352.252 C 712 351.829, 710.080 347.530, 707.734 342.699 L 703.468 333.915 701.276 335.958" stroke="none" fill="#d62b08" fill-rule="evenodd"/></svg>