<svg width="2233" height="527" viewBox="0 0 2233 527" fill="none" xmlns="http://www.w3.org/2000/svg">
<path d="M630.669 116.433C630.669 106.172 622.986 98.4769 612.743 98.4769H585V60H672.923V376.366H630.669V116.433Z" fill="white"/>
<path d="M782.056 379.786C742.363 379.786 709.925 352.424 709.925 310.955C709.925 269.913 738.521 241.269 794.86 241.269H834.553C841.809 241.269 847.358 235.711 847.358 228.443V219.893C847.358 194.242 826.871 180.988 806.811 180.988C788.458 180.988 773.52 189.111 764.983 207.922H719.315C731.265 163.46 765.41 142.512 807.664 142.512C848.211 142.512 890.038 164.743 890.038 220.32V376.366H847.358V362.257C847.358 357.127 841.809 354.562 837.541 357.555C820.895 369.525 805.103 379.786 782.056 379.786ZM788.031 341.309C806.811 341.309 822.603 331.903 840.529 313.947C845.224 309.245 847.358 303.259 847.358 296.847V290.434C847.358 283.166 841.809 277.608 834.553 277.608H793.58C765.837 277.608 752.606 290.006 752.606 309.245C752.606 327.201 764.983 341.309 788.031 341.309Z" fill="white"/>
<path d="M939.855 376.366V147.642H982.109V167.308C982.109 172.438 988.511 174.148 992.353 170.3C1005.58 157.475 1023.94 142.512 1052.96 142.512C1089.67 142.512 1123.81 165.598 1123.81 218.183V376.366H1081.56V227.161C1081.56 197.662 1063.63 181.416 1041.86 181.416C1020.95 181.416 1006.86 193.387 991.926 210.915C984.67 219.893 982.109 230.153 982.109 241.269V376.366H939.855Z" fill="white"/>
<path d="M1265.48 467C1212.98 467 1179.69 442.204 1169.87 403.727H1215.97C1223.22 419.545 1236.03 429.378 1261.64 429.378C1295.78 429.378 1317.12 409.285 1317.12 363.54V356.272C1317.12 351.142 1312.85 348.577 1307.73 352.852C1293.65 365.25 1275.72 372.945 1258.65 372.945C1200.6 372.945 1162.19 328.056 1162.19 257.942C1162.19 187.829 1206.58 142.512 1260.36 142.512C1276.15 142.512 1290.66 146.787 1304.74 157.475C1310.72 161.75 1317.12 158.33 1317.12 151.489V147.642H1359.38V363.54C1359.38 436.218 1315.41 467 1265.48 467ZM1262.92 334.041C1282.12 334.041 1296.21 325.491 1307.73 313.092C1314.99 304.97 1317.12 299.412 1317.12 286.586V225.023C1317.12 212.197 1314.99 204.075 1306.45 195.952C1297.06 186.974 1283.83 180.988 1266.76 180.988C1231.76 180.988 1204.87 210.06 1204.87 257.942C1204.87 305.825 1229.63 334.041 1262.92 334.041Z" fill="white"/>
<path d="M1433.92 199.372C1433.92 192.104 1427.95 186.119 1420.69 186.119H1388.25V147.642H1420.69C1427.95 147.642 1433.92 141.657 1433.92 134.389V128.403C1433.92 82.6586 1457.4 60 1503.07 60H1532.09V98.4769H1502.64C1485.14 98.4769 1476.18 108.31 1476.18 128.403V134.389C1476.18 141.657 1482.15 147.642 1489.41 147.642H1532.09V186.119H1489.41C1482.15 186.119 1476.18 192.104 1476.18 199.372V376.366H1433.92V199.372Z" fill="white"/>
<path d="M1630.02 381.496C1594.17 381.496 1560.88 358.41 1560.88 305.825V147.642H1603.13V297.702C1603.13 327.201 1620.2 342.591 1640.26 342.591C1662.03 342.591 1676.11 330.621 1691.05 313.092C1698.31 304.115 1700.87 293.854 1700.87 282.738V147.642H1743.12V376.366H1700.87V356.7C1700.87 351.569 1694.47 349.859 1690.63 353.707C1677.39 366.533 1659.04 381.496 1630.02 381.496Z" fill="white"/>
<path d="M1871.57 381.496C1832.73 381.496 1792.18 362.257 1781.51 315.658H1825.05C1831.45 333.186 1848.95 345.156 1869.86 345.156C1892.91 345.156 1906.99 331.476 1906.99 314.803C1906.99 298.557 1895.9 289.579 1878.4 284.449L1842.12 274.188C1810.54 265.21 1787.06 244.689 1787.06 209.632C1787.06 171.583 1822.49 142.512 1862.61 142.512C1894.62 142.512 1933.46 157.047 1943.7 207.922H1903.15C1897.6 190.394 1883.09 178.851 1862.61 178.851C1842.55 178.851 1828.03 191.249 1828.03 207.067C1828.03 220.32 1836.14 230.153 1855.35 235.711L1889.5 245.544C1921.93 254.95 1947.97 274.616 1947.97 312.237C1947.97 351.569 1913.82 381.496 1871.57 381.496Z" fill="white"/>
<path d="M2076.54 381.496C2015.08 381.496 1974.53 329.766 1974.53 261.79C1974.53 193.814 2017.64 142.512 2076.11 142.512C2139.71 142.512 2173 193.814 2173 252.384V275.471H2028.74C2022.76 275.471 2020.2 279.318 2021.48 289.151C2026.18 321.215 2051.79 343.446 2076.97 343.446C2095.75 343.446 2111.97 334.041 2122.64 315.658H2167.45C2151.23 355.845 2117.51 381.496 2076.54 381.496ZM2119.65 239.986C2126.48 239.986 2129.04 236.566 2127.33 225.878C2122.64 199.372 2103 180.561 2076.11 180.561C2050.51 180.561 2028.74 199.372 2021.91 226.306C2019.35 236.139 2022.76 239.986 2028.74 239.986H2119.65Z" fill="white"/>
<path d="M286.292 286.105L320.889 313.896C320.889 313.896 347.362 294.235 366.83 291.351C387.248 288.326 409.032 299.71 429.218 313.281C459.707 333.779 485.367 359.789 485.367 359.789L515.427 330.296C515.427 330.296 432.548 240.501 366.83 248.624C323.725 253.952 286.292 286.105 286.292 286.105Z" fill="#FF5D5F"/>
<path d="M88.3582 114.862L60 146.056C60 146.056 139.009 219.788 201.224 219.788C229.582 219.788 268.908 197.572 302.747 168.709C322.03 152.261 343.582 133.579 365.135 133.579C379.622 133.579 398.729 141.252 416.747 161.403C416.747 161.403 428.377 154.429 435.463 149.418C441.691 145.014 450.942 137.508 450.942 137.508C425.024 109.845 387.535 89.6251 365.135 91.6083C328.836 91.6127 302.747 114.209 270.418 140.343C238.09 166.477 224.478 177.25 201.224 177.25C162.09 177.25 88.3582 114.862 88.3582 114.862Z" fill="#4E9CFF"/>
<path d="M88.3582 352.463L60 321.269C60 321.269 139.009 247.537 201.224 247.537C229.582 247.537 268.908 269.753 302.747 298.616C322.03 315.064 343.582 333.746 365.135 333.746C379.691 333.746 398.653 325.757 416.747 305.388C416.747 305.388 427.624 312.093 434.329 316.732C441.223 321.501 451.344 329.387 451.344 329.387C425.413 357.27 387.651 377.71 365.135 375.717C328.836 375.712 307.284 356.477 274.956 330.343C242.627 304.21 224.478 290.075 201.224 290.075C162.09 290.075 88.3582 352.463 88.3582 352.463Z" fill="#4E9CFF"/>
<path d="M458.142 185.149C450.764 190.249 438.859 197.627 438.859 197.627C438.859 197.627 445.665 212.373 445.665 232.224C445.665 252.075 439.426 269.09 439.426 269.09C439.426 269.09 450.114 275.765 457.008 280.433C464.17 285.282 475.157 293.478 475.157 293.478C475.157 293.478 488.202 266.254 488.202 232.224C488.202 198.194 475.157 172.672 475.157 172.672C475.157 172.672 464.921 180.464 458.142 185.149Z" fill="#4E9CFF"/>
<path d="M287.995 180.612L320.89 153.388C320.89 153.388 347.363 172.434 366.831 175.319C387.248 178.344 409.033 166.959 429.219 153.388C459.708 132.89 485.368 106.881 485.368 106.881L515.428 136.373C515.428 136.373 432.549 226.168 366.831 218.045C323.726 212.717 287.995 180.612 287.995 180.612Z" fill="#FF5D5F"/>
<path d="M208.601 91.0002C251.139 91.0002 286.865 127.299 286.865 127.299C286.865 127.299 276.924 135.131 270.417 140.344C263.64 145.773 252.835 154.523 252.835 154.523C252.835 154.523 234.124 134.672 208.601 134.672C198.136 134.672 184.535 140.958 170.034 153.388C158.846 162.979 147.205 174.902 139.407 189.687C132.664 202.471 128.987 217.537 128.631 233.359C128.185 253.232 135.228 274.063 146.78 290.642C154.523 301.754 163.763 310.116 173.437 317.299C185.992 326.621 199.085 333.18 208.601 333.18C218.767 333.18 227.907 329.647 234.691 326.374C245.467 320.135 253.969 312.762 253.969 312.762L287.432 340.553C287.432 340.553 273.82 354.165 255.109 364.374C243.018 370.337 227.477 376.284 208.601 376.284C189.739 376.284 167.834 366.262 147.347 350.762C134.103 340.741 121.122 328.867 111.049 314.463C94.5398 290.856 86.0322 262.135 86.0888 233.359C86.1461 204.223 95.54 175.366 112.183 151.687C138.273 117.657 176.86 91.0002 208.601 91.0002Z" fill="#FF5D5F"/>
</svg>
