<svg width="2255" height="527" viewBox="0 0 2255 527" fill="none" xmlns="http://www.w3.org/2000/svg">
<path d="M652.669 116.433C652.669 106.172 644.986 98.4769 634.743 98.4769H607V60H694.923V376.366H652.669V116.433Z" fill="#1B1917"/>
<path d="M804.056 379.786C764.363 379.786 731.925 352.424 731.925 310.955C731.925 269.913 760.521 241.269 816.86 241.269H856.553C863.809 241.269 869.358 235.711 869.358 228.443V219.893C869.358 194.242 848.871 180.988 828.811 180.988C810.458 180.988 795.52 189.111 786.983 207.922H741.315C753.265 163.46 787.41 142.512 829.664 142.512C870.211 142.512 912.038 164.743 912.038 220.32V376.366H869.358V362.257C869.358 357.127 863.809 354.562 859.541 357.555C842.895 369.525 827.103 379.786 804.056 379.786ZM810.031 341.309C828.811 341.309 844.603 331.903 862.529 313.947C867.224 309.245 869.358 303.259 869.358 296.847V290.434C869.358 283.166 863.809 277.608 856.553 277.608H815.58C787.837 277.608 774.606 290.006 774.606 309.245C774.606 327.201 786.983 341.309 810.031 341.309Z" fill="#1B1917"/>
<path d="M961.855 376.366V147.642H1004.11V167.308C1004.11 172.438 1010.51 174.148 1014.35 170.3C1027.58 157.475 1045.94 142.512 1074.96 142.512C1111.67 142.512 1145.81 165.598 1145.81 218.183V376.366H1103.56V227.161C1103.56 197.662 1085.63 181.416 1063.86 181.416C1042.95 181.416 1028.86 193.387 1013.93 210.915C1006.67 219.893 1004.11 230.153 1004.11 241.269V376.366H961.855Z" fill="#1B1917"/>
<path d="M1287.48 467C1234.98 467 1201.69 442.204 1191.87 403.727H1237.97C1245.22 419.545 1258.03 429.378 1283.64 429.378C1317.78 429.378 1339.12 409.285 1339.12 363.54V356.272C1339.12 351.142 1334.85 348.577 1329.73 352.852C1315.65 365.25 1297.72 372.945 1280.65 372.945C1222.6 372.945 1184.19 328.056 1184.19 257.942C1184.19 187.829 1228.58 142.512 1282.36 142.512C1298.15 142.512 1312.66 146.787 1326.74 157.475C1332.72 161.75 1339.12 158.33 1339.12 151.489V147.642H1381.38V363.54C1381.38 436.218 1337.41 467 1287.48 467ZM1284.92 334.041C1304.12 334.041 1318.21 325.491 1329.73 313.092C1336.99 304.97 1339.12 299.412 1339.12 286.586V225.023C1339.12 212.197 1336.99 204.075 1328.45 195.952C1319.06 186.974 1305.83 180.988 1288.76 180.988C1253.76 180.988 1226.87 210.06 1226.87 257.942C1226.87 305.825 1251.63 334.041 1284.92 334.041Z" fill="#1B1917"/>
<path d="M1455.92 199.372C1455.92 192.104 1449.95 186.119 1442.69 186.119H1410.25V147.642H1442.69C1449.95 147.642 1455.92 141.657 1455.92 134.389V128.403C1455.92 82.6586 1479.4 60 1525.07 60H1554.09V98.4769H1524.64C1507.14 98.4769 1498.18 108.31 1498.18 128.403V134.389C1498.18 141.657 1504.15 147.642 1511.41 147.642H1554.09V186.119H1511.41C1504.15 186.119 1498.18 192.104 1498.18 199.372V376.366H1455.92V199.372Z" fill="#1B1917"/>
<path d="M1652.02 381.496C1616.17 381.496 1582.88 358.41 1582.88 305.825V147.642H1625.13V297.702C1625.13 327.201 1642.2 342.591 1662.26 342.591C1684.03 342.591 1698.11 330.621 1713.05 313.092C1720.31 304.115 1722.87 293.854 1722.87 282.738V147.642H1765.12V376.366H1722.87V356.7C1722.87 351.569 1716.47 349.859 1712.63 353.707C1699.39 366.533 1681.04 381.496 1652.02 381.496Z" fill="#1B1917"/>
<path d="M1893.57 381.496C1854.73 381.496 1814.18 362.257 1803.51 315.658H1847.05C1853.45 333.186 1870.95 345.156 1891.86 345.156C1914.91 345.156 1928.99 331.476 1928.99 314.803C1928.99 298.557 1917.9 289.579 1900.4 284.449L1864.12 274.188C1832.54 265.21 1809.06 244.689 1809.06 209.632C1809.06 171.583 1844.49 142.512 1884.61 142.512C1916.62 142.512 1955.46 157.047 1965.7 207.922H1925.15C1919.6 190.394 1905.09 178.851 1884.61 178.851C1864.55 178.851 1850.03 191.249 1850.03 207.067C1850.03 220.32 1858.14 230.153 1877.35 235.711L1911.5 245.544C1943.93 254.95 1969.97 274.616 1969.97 312.237C1969.97 351.569 1935.82 381.496 1893.57 381.496Z" fill="#1B1917"/>
<path d="M2098.54 381.496C2037.08 381.496 1996.53 329.766 1996.53 261.79C1996.53 193.814 2039.64 142.512 2098.11 142.512C2161.71 142.512 2195 193.814 2195 252.384V275.471H2050.74C2044.76 275.471 2042.2 279.318 2043.48 289.151C2048.18 321.215 2073.79 343.446 2098.97 343.446C2117.75 343.446 2133.97 334.041 2144.64 315.658H2189.45C2173.23 355.845 2139.51 381.496 2098.54 381.496ZM2141.65 239.986C2148.48 239.986 2151.04 236.566 2149.33 225.878C2144.64 199.372 2125 180.561 2098.11 180.561C2072.51 180.561 2050.74 199.372 2043.91 226.306C2041.35 236.139 2044.76 239.986 2050.74 239.986H2141.65Z" fill="#1B1917"/>
<path d="M286.292 286.105L320.889 313.896C320.889 313.896 347.362 294.235 366.83 291.351C387.248 288.326 409.032 299.71 429.218 313.281C459.707 333.779 485.367 359.789 485.367 359.789L515.427 330.296C515.427 330.296 432.548 240.501 366.83 248.624C323.725 253.952 286.292 286.105 286.292 286.105Z" fill="#FF5D5F"/>
<path d="M88.3582 114.862L60 146.056C60 146.056 139.009 219.788 201.224 219.788C229.582 219.788 268.908 197.572 302.747 168.709C322.03 152.261 343.582 133.579 365.135 133.579C379.622 133.579 398.729 141.252 416.747 161.403C416.747 161.403 428.377 154.429 435.463 149.418C441.691 145.014 450.942 137.508 450.942 137.508C425.024 109.845 387.535 89.6251 365.135 91.6083C328.836 91.6127 302.747 114.209 270.418 140.343C238.09 166.477 224.478 177.25 201.224 177.25C162.09 177.25 88.3582 114.862 88.3582 114.862Z" fill="#4E9CFF"/>
<path d="M88.3582 352.463L60 321.269C60 321.269 139.009 247.537 201.224 247.537C229.582 247.537 268.908 269.753 302.747 298.616C322.03 315.064 343.582 333.746 365.135 333.746C379.691 333.746 398.653 325.757 416.747 305.388C416.747 305.388 427.624 312.093 434.329 316.732C441.223 321.501 451.344 329.387 451.344 329.387C425.413 357.27 387.651 377.71 365.135 375.717C328.836 375.712 307.284 356.477 274.956 330.343C242.627 304.21 224.478 290.075 201.224 290.075C162.09 290.075 88.3582 352.463 88.3582 352.463Z" fill="#4E9CFF"/>
<path d="M458.142 185.149C450.764 190.249 438.859 197.627 438.859 197.627C438.859 197.627 445.665 212.373 445.665 232.224C445.665 252.075 439.426 269.09 439.426 269.09C439.426 269.09 450.114 275.765 457.008 280.433C464.17 285.282 475.157 293.478 475.157 293.478C475.157 293.478 488.202 266.254 488.202 232.224C488.202 198.194 475.157 172.672 475.157 172.672C475.157 172.672 464.921 180.464 458.142 185.149Z" fill="#4E9CFF"/>
<path d="M287.995 180.612L320.89 153.388C320.89 153.388 347.363 172.434 366.831 175.318C387.248 178.344 409.033 166.959 429.219 153.388C459.708 132.89 485.368 106.881 485.368 106.881L515.428 136.373C515.428 136.373 432.549 226.168 366.831 218.045C323.726 212.717 287.995 180.612 287.995 180.612Z" fill="#FF5D5F"/>
<path d="M208.601 91.0002C251.139 91.0002 286.865 127.299 286.865 127.299C286.865 127.299 276.924 135.131 270.417 140.344C263.64 145.773 252.835 154.523 252.835 154.523C252.835 154.523 234.124 134.672 208.601 134.672C198.136 134.672 184.535 140.958 170.034 153.388C158.846 162.979 147.205 174.902 139.407 189.687C132.664 202.471 128.987 217.537 128.631 233.359C128.185 253.232 135.228 274.063 146.78 290.642C154.523 301.754 163.763 310.116 173.437 317.299C185.992 326.621 199.085 333.18 208.601 333.18C218.767 333.18 227.907 329.647 234.691 326.374C245.467 320.135 253.969 312.762 253.969 312.762L287.432 340.553C287.432 340.553 273.82 354.165 255.109 364.374C243.018 370.337 227.477 376.284 208.601 376.284C189.739 376.284 167.834 366.262 147.347 350.762C134.103 340.741 121.122 328.867 111.049 314.463C94.5398 290.856 86.0322 262.135 86.0888 233.359C86.1461 204.223 95.54 175.366 112.183 151.687C138.273 117.657 176.86 91.0002 208.601 91.0002Z" fill="#FF5D5F"/>
</svg>
