<svg xmlns="http://www.w3.org/2000/svg" width="780" height="430" viewBox="0 0 780 430" font-family="-apple-system,Segoe UI,Helvetica,Arial,sans-serif"><rect width="780" height="430" fill="#ffffff"/><text x="62" y="26" font-size="16" font-weight="600" fill="#1f2328">Langfuse CI/CD merge-queue runtime by weekly checkpoint</text><text x="62" y="44" font-size="12" fill="#59636e">Median of dense daily medians, seconds. Window 2026-09-15..2026-09-21 is the rightmost point.</text><line x1="62" y1="366.0" x2="758" y2="366.0" stroke="#e6e8eb" stroke-width="1"/><text x="53" y="370.0" font-size="11" fill="#59636e" text-anchor="end">0</text><line x1="62" y1="303.6" x2="758" y2="303.6" stroke="#e6e8eb" stroke-width="1"/><text x="53" y="307.6" font-size="11" fill="#59636e" text-anchor="end">52</text><line x1="62" y1="241.2" x2="758" y2="241.2" stroke="#e6e8eb" stroke-width="1"/><text x="53" y="245.2" font-size="11" fill="#59636e" text-anchor="end">104</text><line x1="62" y1="178.8" x2="758" y2="178.8" stroke="#e6e8eb" stroke-width="1"/><text x="53" y="182.8" font-size="11" fill="#59636e" text-anchor="end">156</text><line x1="62" y1="116.4" x2="758" y2="116.4" stroke="#e6e8eb" stroke-width="1"/><text x="53" y="120.4" font-size="11" fill="#59636e" text-anchor="end">208</text><line x1="62" y1="54.0" x2="758" y2="54.0" stroke="#e6e8eb" stroke-width="1"/><text x="53" y="58.0" font-size="11" fill="#59636e" text-anchor="end">260</text><line x1="62" y1="366.0" x2="758" y2="366.0" stroke="#8c959f" stroke-width="1"/><text x="62.0" y="386" font-size="11" fill="#59636e" text-anchor="middle">W34 08-18</text><text x="178.0" y="386" font-size="11" fill="#59636e" text-anchor="middle">W35 08-24</text><text x="294.0" y="386" font-size="11" fill="#59636e" text-anchor="middle">W35 08-31</text><text x="410.0" y="386" font-size="11" fill="#59636e" text-anchor="middle">W36 09-07</text><text x="526.0" y="386" font-size="11" fill="#59636e" text-anchor="middle">W37 09-11</text><text x="642.0" y="386" font-size="11" fill="#59636e" text-anchor="middle">W38 09-14</text><text x="758.0" y="386" font-size="11" fill="#59636e" text-anchor="middle">W39 09-21</text><path d="M62.0 107.4 L178.0 128.0 L294.0 124.8 L410.0 77.4 L526.0 135.6 L642.0 142.4 L758.0 85.2" fill="none" stroke="#3987e5" stroke-width="2.5" stroke-linejoin="round"/><circle cx="62.0" cy="107.4" r="3.5" fill="#3987e5"/><circle cx="178.0" cy="128.0" r="3.5" fill="#3987e5"/><circle cx="294.0" cy="124.8" r="3.5" fill="#3987e5"/><circle cx="410.0" cy="77.4" r="3.5" fill="#3987e5"/><circle cx="526.0" cy="135.6" r="3.5" fill="#3987e5"/><circle cx="642.0" cy="142.4" r="3.5" fill="#3987e5"/><circle cx="758.0" cy="85.2" r="3.5" fill="#3987e5"/><path d="M62.0 129.6 L178.0 143.6 L294.0 141.6 L410.0 96.6 L526.0 155.6 L642.0 161.6 L758.0 104.6" fill="none" stroke="#de5a20" stroke-width="2.5" stroke-linejoin="round"/><circle cx="62.0" cy="129.6" r="3.5" fill="#de5a20"/><circle cx="178.0" cy="143.6" r="3.5" fill="#de5a20"/><circle cx="294.0" cy="141.6" r="3.5" fill="#de5a20"/><circle cx="410.0" cy="96.6" r="3.5" fill="#de5a20"/><circle cx="526.0" cy="155.6" r="3.5" fill="#de5a20"/><circle cx="642.0" cy="161.6" r="3.5" fill="#de5a20"/><circle cx="758.0" cy="104.6" r="3.5" fill="#de5a20"/><path d="M62.0 161.4 L178.0 176.0 L294.0 205.2 L410.0 167.4 L526.0 179.4 L642.0 179.4 L758.0 142.8" fill="none" stroke="#8875e0" stroke-width="2.5" stroke-linejoin="round"/><circle cx="62.0" cy="161.4" r="3.5" fill="#8875e0"/><circle cx="178.0" cy="176.0" r="3.5" fill="#8875e0"/><circle cx="294.0" cy="205.2" r="3.5" fill="#8875e0"/><circle cx="410.0" cy="167.4" r="3.5" fill="#8875e0"/><circle cx="526.0" cy="179.4" r="3.5" fill="#8875e0"/><circle cx="642.0" cy="179.4" r="3.5" fill="#8875e0"/><circle cx="758.0" cy="142.8" r="3.5" fill="#8875e0"/><text x="62.0" y="98.4" font-size="10" fill="#3987e5" text-anchor="middle">215.5</text><text x="178.0" y="119.0" font-size="10" fill="#3987e5" text-anchor="middle">198.3</text><text x="294.0" y="115.8" font-size="10" fill="#3987e5" text-anchor="middle">201</text><text x="410.0" y="68.4" font-size="10" fill="#3987e5" text-anchor="middle">240.5</text><text x="526.0" y="126.6" font-size="10" fill="#3987e5" text-anchor="middle">192</text><text x="642.0" y="133.4" font-size="10" fill="#3987e5" text-anchor="middle">186.3</text><text x="758.0" y="76.2" font-size="10" fill="#3987e5" text-anchor="middle">234</text><rect x="62" y="406" width="11" height="11" rx="2" fill="#3987e5"/><text x="78" y="416" font-size="11.5" fill="#1f2328">Perceived</text><rect x="171" y="406" width="11" height="11" rx="2" fill="#de5a20"/><text x="187" y="416" font-size="11.5" fill="#1f2328">Execution</text><rect x="280" y="406" width="11" height="11" rx="2" fill="#8875e0"/><text x="296" y="416" font-size="11.5" fill="#1f2328">e2e-tests job</text></svg>
