<svg xmlns="http://www.w3.org/2000/svg" width="650" height="300" viewBox="0 0 650 300">
<defs></defs>
    <rect x="0" y="0" width="650" height="300" fill="hsl(0, 0%, 100%)"></rect>
    <g stroke="hsl(222.2, 84%, 4.9%)" stroke-width="1" stroke-dasharray="2 4" opacity="0.45" fill="none">
      <path d="M220 100 C 260 110, 270 138, 296 148"></path>
      <line x1="220" y1="150" x2="290" y2="150"></line>
      <path d="M220 200 C 260 190, 270 162, 296 152"></path>
      <line x1="356" y1="150" x2="430" y2="150"></line>
    </g>
    <circle cx="393" cy="150" r="3.5" fill="hsl(243, 75.4%, 58.6%)" stroke="hsl(0, 0%, 100%)" stroke-width="1"></circle>
    <g font-family="&#39;Geist Mono&#39;, monospace" font-size="11" letter-spacing="0.02em" fill="hsl(222.2, 84%, 4.9%)">
      <rect x="44" y="84" width="176" height="32" rx="6" fill="hsl(0, 0%, 100%)" stroke="hsl(214.3, 31.8%, 91.4%)"></rect>
      <circle cx="60" cy="100" r="3" fill="hsl(243, 75.4%, 58.6%)"></circle>
      <text x="74" y="104">trace · 0x9f2a</text>
      <rect x="44" y="134" width="176" height="32" rx="6" fill="hsl(0, 0%, 100%)" stroke="hsl(214.3, 31.8%, 91.4%)"></rect>
      <circle cx="60" cy="150" r="3" fill="hsl(243, 75.4%, 58.6%)"></circle>
      <text x="74" y="154">score · 0.92</text>
      <rect x="44" y="184" width="176" height="32" rx="6" fill="hsl(0, 0%, 100%)" stroke="hsl(214.3, 31.8%, 91.4%)"></rect>
      <circle cx="60" cy="200" r="3" fill="hsl(243, 75.4%, 58.6%)"></circle>
      <text x="74" y="204">prompt · v4</text>
    </g>
    <path d="M322 114 C 325 140, 332 147, 358 150 C 332 153, 325 160, 322 186 C 319 160, 312 153, 286 150 C 312 147, 319 140, 322 114 Z" fill="hsl(243, 75.4%, 58.6%)" stroke="hsl(243, 55%, 38%)" stroke-width="1.25" stroke-linejoin="round"></path>
    <path d="M430 150 L416 142 L416 158 Z" fill="hsl(0, 0%, 100%)" stroke="hsl(214.3, 31.8%, 91.4%)"></path>
    <rect x="430" y="78" width="176" height="144" rx="8" fill="hsl(0, 0%, 100%)" stroke="hsl(214.3, 31.8%, 91.4%)"></rect>
    <text x="448" y="104" font-family="&#39;Geist Mono&#39;, monospace" font-size="10" letter-spacing="0.1em" fill="hsl(215.4, 16.3%, 46.9%)">ANSWER</text>
    <g>
      <rect x="448" y="118" width="140" height="7" rx="3.5" fill="hsl(214.3, 31.8%, 91.4%)"></rect>
      <rect x="448" y="136" width="118" height="7" rx="3.5" fill="hsl(214.3, 31.8%, 91.4%)"></rect>
      <rect x="448" y="154" width="132" height="7" rx="3.5" fill="hsl(243, 75.4%, 58.6%)"></rect>
      <rect x="448" y="172" width="92" height="7" rx="3.5" fill="hsl(214.3, 31.8%, 91.4%)"></rect>
      <rect x="544" y="171" width="6" height="10" fill="hsl(222.2, 84%, 4.9%)"></rect>
    </g>
    <g stroke="hsl(222.2, 84%, 4.9%)" stroke-width="1.5" fill="none" opacity="0.4">
      <path d="M14 32 V14 H32"></path>
      <path d="M636 32 V14 H618"></path>
      <path d="M14 268 V286 H32"></path>
      <path d="M636 268 V286 H618"></path>
    </g>
</svg>