<svg width="1200" height="700" viewBox="0 0 1200 700" fill="none" xmlns="http://www.w3.org/2000/svg">
  <rect width="1200" height="700" fill="#F8FAFC"/>
  <rect x="32" y="28" width="1136" height="644" rx="18" fill="white" stroke="#E2E8F0" stroke-width="2"/>
  <rect x="32" y="28" width="1136" height="72" rx="18" fill="#F8FAFC"/>
  <path d="M32 100H1168" stroke="#E2E8F0" stroke-width="2"/>
  <rect x="62" y="52" width="148" height="22" rx="6" fill="#CBD5E1"/>
  <rect x="930" y="48" width="208" height="30" rx="15" fill="#E2E8F0"/>
  <path d="M350 100V672" stroke="#E2E8F0" stroke-width="2"/>
  <rect x="54" y="124" width="274" height="118" rx="12" fill="#EFF6FF" stroke="#60A5FA" stroke-width="2"/>
  <rect x="74" y="146" width="126" height="16" rx="5" fill="#334155"/>
  <rect x="74" y="176" width="204" height="10" rx="5" fill="#94A3B8"/>
  <rect x="74" y="198" width="150" height="10" rx="5" fill="#CBD5E1"/>
  <rect x="74" y="218" width="164" height="12" rx="6" fill="#DBEAFE"/>
  <rect x="54" y="256" width="274" height="104" rx="12" fill="#F8FAFC" stroke="#E2E8F0"/>
  <rect x="74" y="278" width="138" height="16" rx="5" fill="#475569"/>
  <rect x="74" y="308" width="196" height="10" rx="5" fill="#94A3B8"/>
  <rect x="74" y="332" width="164" height="12" rx="6" fill="#E2E8F0"/>
  <rect x="54" y="374" width="274" height="104" rx="12" fill="#F8FAFC" stroke="#E2E8F0"/>
  <rect x="74" y="396" width="112" height="16" rx="5" fill="#475569"/>
  <rect x="74" y="426" width="210" height="10" rx="5" fill="#94A3B8"/>
  <rect x="74" y="450" width="164" height="12" rx="6" fill="#E2E8F0"/>
  <rect x="378" y="118" width="762" height="52" rx="10" fill="#F8FAFC" stroke="#E2E8F0"/>
  <rect x="398" y="136" width="130" height="16" rx="5" fill="#334155"/>
  <rect x="548" y="139" width="184" height="10" rx="5" fill="#94A3B8"/>
  <rect x="954" y="139" width="164" height="10" rx="5" fill="#94A3B8"/>
  <rect x="402" y="194" width="530" height="60" rx="14" fill="#F1F5F9"/>
  <rect x="426" y="217" width="350" height="14" rx="7" fill="#64748B"/>
  <rect x="402" y="276" width="704" height="116" rx="14" fill="#ECFDF5"/>
  <rect x="426" y="302" width="624" height="13" rx="6" fill="#475569"/>
  <rect x="426" y="330" width="572" height="13" rx="6" fill="#64748B"/>
  <rect x="426" y="358" width="466" height="13" rx="6" fill="#64748B"/>
  <rect x="378" y="430" width="762" height="52" rx="10" fill="#F8FAFC" stroke="#E2E8F0"/>
  <rect x="398" y="448" width="130" height="16" rx="5" fill="#334155"/>
  <rect x="548" y="451" width="184" height="10" rx="5" fill="#94A3B8"/>
  <rect x="402" y="506" width="486" height="60" rx="14" fill="#F1F5F9"/>
  <rect x="426" y="529" width="316" height="14" rx="7" fill="#64748B"/>
  <rect x="402" y="588" width="704" height="60" rx="14" fill="#ECFDF5"/>
  <rect x="426" y="611" width="590" height="14" rx="7" fill="#64748B"/>
</svg>
